<svg xmlns="http://www.w3.org/2000/svg" xmlns:xlink="http://www.w3.org/1999/xlink" width="158.761" height="8.305" viewBox="0 0 158.761 8.305"><path d="M0 .534v7.743h4.273v-1.1H1.168V4.59h3.014V3.492H1.168v-1.86h3.105V.534zM15.442 2.665l1.15 2.633h-2.353l1.203-2.633zm-3.811 5.612h1.259l.862-1.882h3.316l.812 1.882h1.279L15.463.047l-3.832 8.23zM26.535.542V1.64h1.78v6.645h1.168V1.64h1.776V.542z"/><defs><path id="a" d="M0 0h158.761v8.305H0z"/></defs><clipPath id="b"><use xlink:href="#a" overflow="visible"/></clipPath><path clip-path="url(#b)" d="M47.099 1.555l-.948.561c-.176-.307-.346-.507-.507-.601-.167-.107-.383-.16-.647-.16-.324 0-.594.092-.807.276a.853.853 0 0 0-.321.682c0 .379.282.682.843.913l.772.317c.629.255 1.088.564 1.378.931.292.365.438.815.438 1.348 0 .711-.238 1.3-.713 1.766-.479.469-1.071.702-1.78.702-.671 0-1.227-.2-1.665-.6-.432-.398-.7-.96-.808-1.683l1.183-.26c.054.455.149.769.283.943.239.334.591.5 1.053.5.364 0 .666-.121.907-.365.24-.244.361-.553.361-.928 0-.148-.022-.287-.064-.412a1.037 1.037 0 0 0-.195-.346 1.566 1.566 0 0 0-.343-.296 3.183 3.183 0 0 0-.501-.263l-.749-.311c-1.058-.448-1.589-1.103-1.589-1.965 0-.581.223-1.067.669-1.458.443-.394.996-.592 1.66-.592.891.002 1.589.435 2.09 1.301M55.771.561v6.644h2.276v1.099h-3.444V.561zM69.805 1.637H66.7v1.861h3.014v1.098H66.7v2.587h3.105v1.1h-4.273V.54h4.273zM81.483 1.623H78.38v1.86h3.014v1.099H78.38v2.586h3.103v1.1h-4.271V.525h4.271zM90.067 5.117V8.26h-1.168V.518h1.323c.647 0 1.137.045 1.47.136.334.09.628.261.882.511.444.434.667.983.667 1.645 0 .709-.237 1.27-.712 1.685-.476.415-1.115.622-1.922.622h-.54zm0-1.083h.436c1.073 0 1.609-.414 1.609-1.239 0-.799-.552-1.198-1.66-1.198h-.385v2.437zM106.376 5.51l.019.002 1.621-5.001h1.604l1.519 5.001h.017L112.614.51l2.096.001-2.473 7.74h-2.054l-1.354-4.485h-.022l-1.52 4.484-2.043.001-2.308-7.74h2.094zM130.177 3.985c0 2.503-1.797 4.268-4.282 4.268-2.483.002-4.28-1.765-4.281-4.269 0-2.34 2.054-3.984 4.281-3.984 2.229 0 4.282 1.644 4.282 3.985m-6.467.009c0 1.334.985 2.309 2.187 2.309 1.2 0 2.186-.975 2.186-2.309 0-1.069-.985-2.043-2.186-2.043-1.202 0-2.187.975-2.187 2.043M144.105 8.289h-2.504l-1.898-2.975h-.021v2.975h-2.011V.549h3.007c1.531 0 2.69.73 2.688 2.382.003 1.068-.594 1.992-1.692 2.189l2.431 3.169zm-4.423-4.269h.195c.654 0 1.396-.124 1.396-.965s-.741-.966-1.396-.965h-.195v1.93zM155.99.565h2.492l-3.08 3.665 3.359 4.075h-2.608l-2.596-3.356h-.021v3.356h-2.011V.565h2.011v3.194h.021z"/></svg>